<?xml version="1.0" encoding="UTF-8" standalone="no"?>
<!-- Created with Inkscape (http://www.inkscape.org/) -->

<svg
   xmlns:dc="http://purl.org/dc/elements/1.1/"
   xmlns:cc="http://creativecommons.org/ns#"
   xmlns:rdf="http://www.w3.org/1999/02/22-rdf-syntax-ns#"
   xmlns:svg="http://www.w3.org/2000/svg"
   xmlns="http://www.w3.org/2000/svg"
   xmlns:sodipodi="http://sodipodi.sourceforge.net/DTD/sodipodi-0.dtd"
   xmlns:inkscape="http://www.inkscape.org/namespaces/inkscape"
   width="100"
   height="80"
   viewBox="0 0 100 80"
   id="svg4137"
   version="1.1"
   inkscape:version="0.91 r13725"
   sodipodi:docname="1_3.svg">
  <defs
     id="defs4139" />
  <sodipodi:namedview
     id="base"
     pagecolor="#ffffff"
     bordercolor="#666666"
     borderopacity="1.0"
     inkscape:pageopacity="0.0"
     inkscape:pageshadow="2"
     inkscape:zoom="8"
     inkscape:cx="71.903022"
     inkscape:cy="38.449366"
     inkscape:document-units="px"
     inkscape:current-layer="layer6"
     showgrid="false"
     units="px"
     inkscape:window-width="1920"
     inkscape:window-height="1027"
     inkscape:window-x="1916"
     inkscape:window-y="-4"
     inkscape:window-maximized="1" />
  <metadata
     id="metadata4142">
    <rdf:RDF>
      <cc:Work
         rdf:about="">
        <dc:format>image/svg+xml</dc:format>
        <dc:type
           rdf:resource="http://purl.org/dc/dcmitype/StillImage" />
        <dc:title></dc:title>
      </cc:Work>
    </rdf:RDF>
  </metadata>
  <g
     inkscape:groupmode="layer"
     id="layer2"
     inkscape:label="1"
     style="display:inline">
    <path
       style="fill:#ff7f2a;fill-opacity:1;fill-rule:evenodd;stroke:none;stroke-width:1px;stroke-linecap:butt;stroke-linejoin:miter;stroke-opacity:1"
       d="M 41.390891,30.070579 30.383079,19.062767 c 0,0 7.919356,-8.55217 20.179687,-8.625 13.279056,-0.07888 21.0625,8.625 21.0625,8.625 L 60.84011,29.847923 c 0,0 -4.379785,-3.71024 -9.527164,-3.824139 -5.815585,-0.128685 -9.922055,4.046795 -9.922055,4.046795 z"
       id="path5300"
       inkscape:connector-curvature="0"
       sodipodi:nodetypes="ccsccsc" />
  </g>
  <g
     inkscape:groupmode="layer"
     id="layer3"
     inkscape:label="2"
     style="display:none">
    <path
       style="display:inline;fill:#ff7f2a;fill-opacity:1;fill-rule:evenodd;stroke:none;stroke-width:1px;stroke-linecap:butt;stroke-linejoin:miter;stroke-opacity:1"
       d="M 59.683326,30.511721 70.691138,19.503908 c 0,0 8.552172,7.919356 8.625002,20.179688 0.0789,13.279057 -8.625002,21.062497 -8.625002,21.062497 L 59.905982,49.960943 c 0,0 3.71024,-4.37979 3.824139,-9.527167 0.128685,-5.815585 -4.046795,-9.922055 -4.046795,-9.922055 z"
       id="path5300-0"
       inkscape:connector-curvature="0"
       sodipodi:nodetypes="ccsccsc" />
  </g>
  <g
     inkscape:groupmode="layer"
     id="layer4"
     inkscape:label="3"
     style="display:inline">
    <path
       style="display:inline;fill:#ff7f2a;fill-opacity:1;fill-rule:evenodd;stroke:none;stroke-width:1px;stroke-linecap:butt;stroke-linejoin:miter;stroke-opacity:1"
       d="m 59.738279,49.808327 11.007813,11.007812 c 0,0 -7.919356,8.552172 -20.179688,8.625002 -13.279057,0.0789 -21.062497,-8.625002 -21.062497,-8.625002 l 10.78515,-10.785156 c 0,0 4.37979,3.71024 9.527167,3.824139 5.815585,0.128685 9.922055,-4.046795 9.922055,-4.046795 z"
       id="path5300-0-4"
       inkscape:connector-curvature="0"
       sodipodi:nodetypes="ccsccsc" />
  </g>
  <g
     inkscape:groupmode="layer"
     id="layer5"
     inkscape:label="4"
     style="display:none">
    <path
       style="display:inline;fill:#ff7f2a;fill-opacity:1;fill-rule:evenodd;stroke:none;stroke-width:1px;stroke-linecap:butt;stroke-linejoin:miter;stroke-opacity:1"
       d="M 39.941673,49.86328 28.933861,60.871093 c 0,0 -8.552172,-7.919356 -8.625002,-20.179688 -0.0789,-13.279057 8.625002,-21.062497 8.625002,-21.062497 l 10.785156,10.78515 c 0,0 -3.71024,4.37979 -3.824139,9.527167 -0.128685,5.815585 4.046795,9.922055 4.046795,9.922055 z"
       id="path5300-0-3"
       inkscape:connector-curvature="0"
       sodipodi:nodetypes="ccsccsc" />
  </g>
  <g
     inkscape:groupmode="layer"
     id="layer6"
     inkscape:label="5"
     style="display:none">
    <circle
       style="fill:#ff7f2a;fill-opacity:1;stroke:none;stroke-width:2;stroke-linecap:round;stroke-linejoin:miter;stroke-miterlimit:4;stroke-dasharray:none;stroke-opacity:1"
       id="path5342"
       cx="49.900002"
       cy="40.099998"
       r="13.5" />
  </g>
  <g
     inkscape:label="Layer 1"
     inkscape:groupmode="layer"
     id="layer1"
     transform="translate(0,-972.36216)"
     style="display:inline">
    <path
       style="fill:none;fill-opacity:1;stroke:#000000;stroke-width:2;stroke-linecap:round;stroke-linejoin:miter;stroke-miterlimit:4;stroke-dasharray:none;stroke-opacity:1"
       d="m 50,10.734375 a 29.26652,29.266518 0 0 0 -20.683594,8.585937 l 10.900391,10.896485 a 13.83975,13.83975 0 0 1 9.623047,-3.896485 13.83975,13.83975 0 0 1 9.78125,4.060547 l 11.0625,-11.060547 A 29.26652,29.266518 0 0 0 50,10.734375 Z M 29.314453,19.322266 A 29.26652,29.266518 0 0 0 20.734375,40 29.26652,29.266518 0 0 0 29.314453,60.677734 L 40.056641,49.9375 A 13.83975,13.83975 0 0 1 36,40.160156 13.83975,13.83975 0 0 1 40.210938,30.21875 L 29.314453,19.322266 Z m 41.371094,0 L 59.625,30.382812 a 13.83975,13.83975 0 0 1 4.054688,9.777344 13.83975,13.83975 0 0 1 -3.902344,9.611328 L 70.6875,60.675781 A 29.26652,29.266518 0 0 0 79.265625,40 29.26652,29.266518 0 0 0 70.685547,19.322266 Z M 59.771484,49.779297 A 13.83975,13.83975 0 0 1 49.839844,54 13.83975,13.83975 0 0 1 40.064453,49.943359 L 29.322266,60.685547 A 29.26652,29.266518 0 0 0 50,69.265625 29.26652,29.266518 0 0 0 70.677734,60.685547 l -10.90625,-10.90625 z"
       transform="translate(0,972.36216)"
       id="path4685"
       inkscape:connector-curvature="0" />
  </g>
</svg>
